<?xml version="1.0" encoding="utf-8"?>
<!-- Generator: Adobe Illustrator 23.0.4, SVG Export Plug-In . SVG Version: 6.00 Build 0)  -->
<svg version="1.1" id="Layer_1" xmlns="http://www.w3.org/2000/svg" xmlns:xlink="http://www.w3.org/1999/xlink" x="0px" y="0px"
	 viewBox="0 0 700 443" style="enable-background:new 0 0 700 443;" xml:space="preserve">
<style type="text/css">
	.st0{fill:#CCCBCD;}
</style>
<path class="st0" d="M507.9,164.9c12.3-22.4,34.7-46.5,72.8-69.4c10.6-6.2,17.4-17.4,17.4-29.1c0-24.1-24.6-40.9-47-30.8
	c-65,28.6-173,99.7-173,247c0,66.1,53.2,119.3,119.3,119.3c66.1,0,118.7-53.2,118.7-118.7C616,220.9,568.4,170.5,507.9,164.9
	L507.9,164.9z"/>
<path class="st0" d="M213.4,164.9c12.3-22.4,34.7-46.5,72.8-69.4c10.6-6.2,17.4-17.4,17.4-29.1c0-24.1-24.6-40.9-47-30.8
	C192.1,64.1,84,135.2,84,282.5c0,66.1,53.2,119.3,118.7,119.3S322,348.6,322,282.5C322,220.9,274.4,170.5,213.4,164.9L213.4,164.9z"
	/>
</svg>
